<svg xmlns="http://www.w3.org/2000/svg" viewBox="0 0 64 64" role="img" aria-label="Gourab De Drug Addiction Centre">
  <defs>
    <linearGradient id="bg" x1="4" y1="4" x2="60" y2="60" gradientUnits="userSpaceOnUse">
      <stop stop-color="#ffffff"/>
      <stop offset=".52" stop-color="#e5f4fc"/>
      <stop offset="1" stop-color="#bfe1f5"/>
    </linearGradient>
    <linearGradient id="blue" x1="17" y1="14" x2="48" y2="53" gradientUnits="userSpaceOnUse">
      <stop stop-color="#2b8cc4"/>
      <stop offset="1" stop-color="#1a5f8c"/>
    </linearGradient>
  </defs>
  <rect x="3" y="3" width="58" height="58" rx="17" fill="url(#bg)"/>
  <path d="M32 10.5c11.1 0 20 8.6 20 19.2C52 42.9 38.2 51.8 32 54.7c-6.2-2.9-20-11.8-20-25C12 19.1 20.9 10.5 32 10.5Z" fill="url(#blue)"/>
  <path d="M21.7 34.8c5.1 1.2 10.6 1.2 15.7 0 2.9-.7 5.5-1.8 7.9-3.4" fill="none" stroke="#e8f4fd" stroke-width="2.9" stroke-linecap="round"/>
  <path d="M24 29.1c2.3-4 5.4-6.1 8-6.1s5.7 2.1 8 6.1" fill="none" stroke="#fff" stroke-width="3" stroke-linecap="round"/>
  <path d="M32 22.3v22.2" fill="none" stroke="#fff" stroke-width="3" stroke-linecap="round"/>
  <path d="m24.7 41 5.3 5.1 10.3-11.2" fill="none" stroke="#fff" stroke-width="3.6" stroke-linecap="round" stroke-linejoin="round"/>
</svg>
